<svg width="256" height="256" viewBox="0 0 256 256" fill="none" xmlns="http://www.w3.org/2000/svg">
<rect width="256" height="256" rx="128" fill="#272219"/>
<path d="M216.467 118.518V126.398C216.467 127.029 216.151 127.344 215.521 127.659C214.512 128.164 213.512 126.973 212.656 126.239L202.088 117.181C201.169 116.394 199.849 115.502 200.39 114.42C200.956 113.287 202.579 113.964 203.797 114.313L213.455 117.072C214.617 117.404 216.467 117.31 216.467 118.518ZM86.9079 48.8524C74.6141 48.8524 62.3202 50.7438 51.2872 54.5265C45.2979 56.4179 39.6238 58.9397 34.2649 61.7768C34.2335 61.7925 34.2021 61.8074 34.1707 61.8215C33.1336 62.2877 31.865 60.9024 32.3735 59.8854C35.5258 54.2113 39.3086 49.1677 44.037 44.7545C52.8633 36.8738 64.5268 31.1997 77.4511 28.6779C90.3755 25.8408 104.876 26.156 119.692 28.9931C136.184 32.3527 152.973 39.5593 168.05 50.8994C169.018 51.6274 170.354 52.4977 169.813 53.5808C169.247 54.7121 167.614 54.0621 166.371 53.8319C161.257 52.8854 155.921 52.6352 150.584 52.6352C146.171 52.6352 141.758 52.9504 137.66 53.5808C134.322 54.1876 130.693 54.7945 127.333 55.6823C127.073 55.7511 126.805 55.7874 126.536 55.7874C126.179 55.7874 125.825 55.7238 125.489 55.602C119.668 53.4921 113.84 51.9691 107.713 50.7438C101.093 49.4829 93.843 48.8524 86.9079 48.8524ZM139.551 127.975C140.198 128.622 139.336 129.646 138.928 130.465C133.751 140.849 128.544 155.826 137.029 166.432C137.344 166.748 137.344 167.063 137.344 167.378C137.344 168.151 136.379 168.526 135.757 168.985C126.836 175.581 125.323 189.279 124.105 202.684C122.925 215.069 111.156 222.444 99.4249 218.3C88.7278 214.522 78.5731 209.163 69.2552 202.368C59.7984 195.118 51.2872 186.607 44.6674 177.15C42.1956 174.06 42.5425 169.757 44.7221 166.455L82.1693 109.716C82.5953 109.071 82.9823 108.115 83.7557 108.115C84.0709 108.115 84.3861 108.115 84.7014 108.43C96.0496 118.833 112.757 127.344 138.29 127.344C138.921 127.344 139.236 127.659 139.551 127.975ZM209.847 204.89C204.72 209.715 198.151 216.271 191.795 224.835C191.217 225.613 190.642 226.641 189.672 226.641C188.84 226.641 188.553 225.618 188.271 224.835C186.967 221.213 186.173 216.647 185.889 211.825C185.582 205.667 186.477 198.606 188.575 192.112C188.673 191.808 188.844 191.533 189.07 191.307C189.456 190.922 189.993 190.639 190.517 190.792C190.676 190.839 190.824 190.911 190.933 191.02C195.031 195.118 201.336 199.847 209.216 202.684C210.02 203.085 210.53 204.201 209.897 204.839C209.881 204.856 209.864 204.873 209.847 204.89ZM231.913 184.105C231.913 184.241 231.902 184.47 231.878 184.604C230.654 191.443 225.806 194.615 223.342 195.803C222.968 195.984 222.557 196.064 222.141 196.064C204.621 194.02 194.133 180.345 192.683 178.341C192.561 178.173 192.469 177.998 192.346 177.83C192.035 177.405 191.564 177.112 191.078 176.659C190.984 176.572 190.861 176.52 190.732 176.52C190.657 176.52 190.583 176.501 190.514 176.471C189.918 176.204 189.322 176.204 188.727 176.204C187.466 176.204 178.009 175.889 152.475 165.802C131.355 157.606 150.269 135.225 153.106 124.822C160.671 98.6584 139.551 79.1143 112.441 81.3209C109.92 81.6361 107.713 83.8427 108.028 86.3645C108.066 86.6705 108.133 86.9671 108.224 87.2522C109.523 91.3182 115.212 90.5201 119.467 90.8575C129.262 91.6342 146.766 95.9096 145.856 116.626C145.856 117.257 145.225 117.887 144.595 117.887C96.1313 120.994 80.1213 89.8103 75.1418 75.6303C74.996 75.2152 74.8823 74.9289 74.97 74.4978C75.0558 74.0756 75.3783 73.5738 75.7242 73.3169C75.766 73.2858 75.8078 73.2576 75.8496 73.2329C76.0569 73.1105 76.3098 73.1074 76.548 73.0723L127.352 65.5919C127.499 65.5703 127.629 65.5632 127.777 65.5563C128.305 65.5316 128.786 65.1705 129.297 65.0334C132.549 64.1613 136.05 63.3294 139.551 63.0377C143.334 62.4072 147.116 62.4072 151.214 62.4072C158.465 62.4072 165.715 63.3529 172.335 65.2443C178.883 66.8034 185.123 69.5964 190.749 72.7079C190.87 72.7747 191.109 72.8165 191.187 72.9301C191.293 73.0844 191.313 73.204 191.431 73.3492C194.207 76.7554 196.97 80.4634 199.129 84.4732C202.578 90.1167 205.403 95.7602 207.604 102.024C207.628 102.091 207.634 102.093 207.643 102.164C207.676 102.402 208.024 102.577 208.128 102.793C208.831 104.26 209.147 105.3 209.411 105.745C209.449 105.809 209.532 105.919 209.532 105.994C209.532 106.05 209.478 106.209 209.424 106.194L178.639 97.7127C176.117 97.0823 173.596 98.3432 172.65 100.865C172.019 102.756 172.965 104.648 174.226 105.909L216.681 142.12C216.949 142.349 217.362 142.463 217.402 142.814C217.421 142.983 217.441 143.187 217.498 143.347L231.769 183.368C231.864 183.634 231.913 183.823 231.913 184.105Z" fill="white"/>
<path d="M216.467 118.518V126.398C216.467 127.029 216.151 127.344 215.521 127.659C214.512 128.164 213.512 126.973 212.656 126.239L202.088 117.181C201.169 116.394 199.849 115.502 200.39 114.42C200.956 113.287 202.579 113.964 203.797 114.313L213.455 117.072C214.617 117.404 216.467 117.31 216.467 118.518ZM86.9079 48.8524C74.6141 48.8524 62.3202 50.7438 51.2872 54.5265C45.2979 56.4179 39.6238 58.9397 34.2649 61.7768C34.2335 61.7925 34.2021 61.8074 34.1707 61.8215C33.1336 62.2877 31.865 60.9024 32.3735 59.8854C35.5258 54.2113 39.3086 49.1677 44.037 44.7545C52.8633 36.8738 64.5268 31.1997 77.4511 28.6779C90.3755 25.8408 104.876 26.156 119.692 28.9931C136.184 32.3527 152.973 39.5593 168.05 50.8994C169.018 51.6274 170.354 52.4977 169.813 53.5808C169.247 54.7121 167.614 54.0621 166.371 53.8319C161.257 52.8854 155.921 52.6352 150.584 52.6352C146.171 52.6352 141.758 52.9504 137.66 53.5808C134.322 54.1876 130.693 54.7945 127.333 55.6823C127.073 55.7511 126.805 55.7874 126.536 55.7874C126.179 55.7874 125.825 55.7238 125.489 55.602C119.668 53.4921 113.84 51.9691 107.713 50.7438C101.093 49.4829 93.843 48.8524 86.9079 48.8524ZM139.551 127.975C140.198 128.622 139.336 129.646 138.928 130.465C133.751 140.849 128.544 155.826 137.029 166.432C137.344 166.748 137.344 167.063 137.344 167.378C137.344 168.151 136.379 168.526 135.757 168.985C126.836 175.581 125.323 189.279 124.105 202.684C122.925 215.069 111.156 222.444 99.4249 218.3C88.7278 214.522 78.5731 209.163 69.2552 202.368C59.7984 195.118 51.2872 186.607 44.6674 177.15C42.1956 174.06 42.5425 169.757 44.7221 166.455L82.1693 109.716C82.5953 109.071 82.9823 108.115 83.7557 108.115C84.0709 108.115 84.3861 108.115 84.7014 108.43C96.0496 118.833 112.757 127.344 138.29 127.344C138.921 127.344 139.236 127.659 139.551 127.975ZM209.847 204.89C204.72 209.715 198.151 216.271 191.795 224.835C191.217 225.613 190.642 226.641 189.672 226.641C188.84 226.641 188.553 225.618 188.271 224.835C186.967 221.213 186.173 216.647 185.889 211.825C185.582 205.667 186.477 198.606 188.575 192.112C188.673 191.808 188.844 191.533 189.07 191.307C189.456 190.922 189.993 190.639 190.517 190.792C190.676 190.839 190.824 190.911 190.933 191.02C195.031 195.118 201.336 199.847 209.216 202.684C210.02 203.085 210.53 204.201 209.897 204.839C209.881 204.856 209.864 204.873 209.847 204.89ZM231.913 184.105C231.913 184.241 231.902 184.47 231.878 184.604C230.654 191.443 225.806 194.615 223.342 195.803C222.968 195.984 222.557 196.064 222.141 196.064C204.621 194.02 194.133 180.345 192.683 178.341C192.561 178.173 192.469 177.998 192.346 177.83C192.035 177.405 191.564 177.112 191.078 176.659C190.984 176.572 190.861 176.52 190.732 176.52C190.657 176.52 190.583 176.501 190.514 176.471C189.918 176.204 189.322 176.204 188.727 176.204C187.466 176.204 178.009 175.889 152.475 165.802C131.355 157.606 150.269 135.225 153.106 124.822C160.671 98.6584 139.551 79.1143 112.441 81.3209C109.92 81.6361 107.713 83.8427 108.028 86.3645C108.066 86.6705 108.133 86.9671 108.224 87.2522C109.523 91.3182 115.212 90.5201 119.467 90.8575C129.262 91.6342 146.766 95.9096 145.856 116.626C145.856 117.257 145.225 117.887 144.595 117.887C96.1313 120.994 80.1213 89.8103 75.1418 75.6303C74.996 75.2152 74.8823 74.9289 74.97 74.4978C75.0558 74.0756 75.3783 73.5738 75.7242 73.3169C75.766 73.2858 75.8078 73.2576 75.8496 73.2329C76.0569 73.1105 76.3098 73.1074 76.548 73.0723L127.352 65.5919C127.499 65.5703 127.629 65.5632 127.777 65.5563C128.305 65.5316 128.786 65.1705 129.297 65.0334C132.549 64.1613 136.05 63.3294 139.551 63.0377C143.334 62.4072 147.116 62.4072 151.214 62.4072C158.465 62.4072 165.715 63.3529 172.335 65.2443C178.883 66.8034 185.123 69.5964 190.749 72.7079C190.87 72.7747 191.109 72.8165 191.187 72.9301C191.293 73.0844 191.313 73.204 191.431 73.3492C194.207 76.7554 196.97 80.4634 199.129 84.4732C202.578 90.1167 205.403 95.7602 207.604 102.024C207.628 102.091 207.634 102.093 207.643 102.164C207.676 102.402 208.024 102.577 208.128 102.793C208.831 104.26 209.147 105.3 209.411 105.745C209.449 105.809 209.532 105.919 209.532 105.994C209.532 106.05 209.478 106.209 209.424 106.194L178.639 97.7127C176.117 97.0823 173.596 98.3432 172.65 100.865C172.019 102.756 172.965 104.648 174.226 105.909L216.681 142.12C216.949 142.349 217.362 142.463 217.402 142.814C217.421 142.983 217.441 143.187 217.498 143.347L231.769 183.368C231.864 183.634 231.913 183.823 231.913 184.105Z" fill="url(#paint0_linear)"/>
<defs>
<linearGradient id="paint0_linear" x1="128.045" y1="17.4813" x2="128.045" y2="240.253" gradientUnits="userSpaceOnUse">
<stop stop-color="white"/>
<stop offset="1" stop-color="white" stop-opacity="0"/>
</linearGradient>
</defs>
</svg>
