<svg width="192" height="57" viewBox="0 0 192 57" fill="none" xmlns="http://www.w3.org/2000/svg">
<path d="M50.4 42.98L47.11 33.6V33.53L47.04 28.07C47.04 27.79 46.97 27.58 46.83 27.37L45.43 25.41C45.43 25.41 45.43 25.34 45.36 25.34C45.29 25.13 45.15 24.85 45.01 24.5C44.45 23.03 43.75 21.63 42.98 20.3C42.14 18.97 41.16 17.64 40.11 16.52C35.49 11.41 29.68 8.33002 23.94 7.14002C20.37 6.37002 16.8 6.37002 13.65 7.00002C10.43 7.70002 7.49 9.03002 5.25 11.06C3.01 13.09 1.4 15.75 0.7 19.11C0.56 19.67 0.98 20.23 1.54 20.37C1.89 20.44 2.17 20.37 2.45 20.16C4.41 18.76 6.58 17.57 8.96 16.8C11.27 16.03 13.72 15.61 16.24 15.61C16.66 15.61 17.15 15.61 17.57 15.61C17.71 15.61 17.85 15.75 17.85 15.89C17.85 16.03 17.71 16.17 17.57 16.17L11.97 17.01C11.41 17.08 10.99 17.64 11.06 18.2C11.06 18.2 11.62 21.49 14 24.64C14.07 24.71 14.07 24.85 14 24.99L4.83 38.78C4.2 37.52 3.64 36.26 3.22 34.93C2.45 32.48 2.1 29.96 2.1 27.44C2.1 26.39 2.17 25.27 2.31 24.22C2.38 23.66 1.96 23.1 1.4 23.03C0.84 22.96 0.28 23.38 0.21 23.94C0.07 25.06 0 26.25 0 27.44C0 30.24 0.42 32.97 1.26 35.56C2.1 38.29 3.43 40.88 5.11 43.26C6.79 45.57 8.75 47.67 11.06 49.35C15.82 52.92 21.49 54.81 27.44 54.81C29.61 54.81 31.78 54.53 33.81 54.04C34.37 53.9 34.72 53.34 34.58 52.78C34.44 52.22 33.88 51.87 33.32 52.01C31.43 52.5 29.4 52.71 27.44 52.71C26.88 52.71 26.32 52.71 25.76 52.64C26.25 51.31 26.46 49.63 26.6 47.95C26.95 44.8 27.23 41.58 30.03 41.51C30.1 41.51 30.1 41.51 30.17 41.51C33.32 42.77 35.49 43.33 36.89 43.61C36.96 43.61 37.03 43.68 37.1 43.75C37.17 43.82 37.17 43.89 37.1 43.96C36.4 45.85 36.05 47.88 36.12 49.7C36.19 52.29 37.03 54.6 38.43 55.72C38.92 56.14 39.69 56.14 40.04 55.51C42.49 51.59 45.57 49.07 46.55 48.37C46.62 48.37 46.62 48.3 46.69 48.3C46.76 48.3 46.76 48.3 46.83 48.23C47.46 48.02 50.33 46.97 50.61 43.47C50.54 43.33 50.47 43.12 50.4 42.98ZM44.94 28.98V30.73C44.94 30.87 44.87 30.94 44.73 31.01C44.59 31.08 44.52 31.01 44.38 30.94L41.44 28.42C41.3 28.35 41.3 28.21 41.37 28.07C41.44 27.93 41.58 27.86 41.72 27.93L44.66 28.77C44.87 28.77 44.94 28.84 44.94 28.98ZM16.17 13.51C13.44 13.51 10.71 13.93 8.26 14.77C6.93 15.19 5.67 15.75 4.48 16.38C4.34 16.45 4.2 16.45 4.13 16.31C4.06 16.24 3.99 16.1 4.06 15.96C4.76 14.7 5.6 13.58 6.65 12.6C8.61 10.85 11.2 9.59002 14.07 9.03002C16.94 8.40002 20.16 8.47002 23.45 9.10002C27.23 9.87002 31.08 11.55 34.51 14.21C34.65 14.28 34.65 14.42 34.58 14.56C34.51 14.7 34.37 14.77 34.23 14.7C32.97 14.42 31.64 14.35 30.31 14.35C29.33 14.35 28.35 14.42 27.44 14.56C26.67 14.7 25.83 14.84 25.06 15.05C24.99 15.05 24.92 15.05 24.85 15.05C23.52 14.56 22.19 14.21 20.79 13.93C19.32 13.65 17.71 13.51 16.17 13.51ZM27.86 31.36C26.67 33.67 25.34 37.17 27.3 39.62C27.37 39.69 27.37 39.76 27.37 39.83C27.37 39.9 27.3 39.97 27.23 40.04C25.06 41.44 24.71 44.59 24.43 47.67C24.29 49.14 23.94 51.24 23.52 52.29C19.46 51.66 15.61 50.05 12.25 47.6C10.15 45.99 8.26 44.1 6.79 42C6.51 41.65 6.23 41.23 6.02 40.81L15.26 26.81C15.33 26.74 15.4 26.67 15.47 26.67C15.54 26.67 15.61 26.67 15.68 26.74C18.2 29.05 21.91 30.94 27.58 30.94C27.72 30.94 27.79 31.01 27.86 31.08C27.93 31.15 27.93 31.29 27.86 31.36ZM43.47 48.16C42.28 49.28 40.74 50.82 39.27 52.85C39.2 52.92 39.13 52.99 38.99 52.99C38.85 52.99 38.78 52.92 38.78 52.85C38.43 52.01 38.22 50.89 38.15 49.7C38.08 48.3 38.29 46.69 38.78 45.22C38.85 45.15 38.92 45.08 38.99 45.01C39.06 45.01 39.2 45.01 39.27 45.08C40.18 45.99 41.58 47.04 43.33 47.67C43.47 47.74 43.47 47.81 43.54 47.88C43.61 48.02 43.54 48.09 43.47 48.16ZM48.37 43.61C48.09 45.29 46.83 45.99 46.34 46.2C46.27 46.2 46.27 46.2 46.2 46.2C42 45.71 39.62 42.21 39.62 42.21C39.55 42.07 39.41 42 39.27 41.86H39.2C39.06 41.79 38.92 41.79 38.78 41.79C38.5 41.79 36.4 41.72 30.73 39.48C26.04 37.66 30.24 32.69 30.87 30.38C32.55 24.57 27.86 20.23 21.84 20.72C21.28 20.79 20.79 21.28 20.86 21.84C20.93 22.4 21.42 22.82 21.98 22.82C21.98 22.82 29.54 22.19 29.26 28.56C29.26 28.7 29.12 28.84 28.98 28.84C18.06 29.54 14.56 22.4 13.51 19.32C13.51 19.25 13.51 19.18 13.58 19.04C13.65 18.97 13.72 18.9 13.79 18.9L25.2 17.22C25.27 17.22 25.34 17.22 25.41 17.15C26.18 16.94 27.02 16.73 27.86 16.66C28.7 16.52 29.54 16.52 30.45 16.52C32.06 16.52 33.67 16.73 35.14 17.15C36.61 17.5 38.01 18.13 39.27 18.83C39.34 18.83 39.34 18.9 39.34 18.9C39.97 19.67 40.6 20.51 41.09 21.42C41.86 22.68 42.49 23.94 42.98 25.34C42.98 25.34 42.98 25.41 43.05 25.41C43.26 25.83 43.33 26.11 43.4 26.18C43.4 26.18 43.4 26.18 43.4 26.25L36.54 24.36C35.98 24.22 35.42 24.5 35.21 25.06C35.07 25.48 35.28 25.9 35.56 26.18L45.08 34.3C45.15 34.3 45.15 34.37 45.15 34.44L48.37 43.47C48.37 43.47 48.37 43.54 48.37 43.61Z" fill="white"/>
<path d="M52.57 16.73C51.17 13.44 49.21 10.57 46.69 8.05C44.24 5.53 41.3 3.5 38.01 2.17C34.65 0.7 31.08 0 27.37 0C22.75 0 18.2 1.19 14.21 3.36C13.72 3.64 13.51 4.27 13.79 4.83C14.07 5.32 14.7 5.53 15.26 5.25C18.97 3.22 23.1 2.17 27.37 2.17C34.09 2.17 40.46 4.83 45.22 9.59C49.98 14.35 52.64 20.72 52.64 27.44C52.64 31.01 51.94 34.44 50.47 37.66C50.26 38.22 50.47 38.85 51.03 39.06C51.17 39.13 51.31 39.13 51.45 39.13C51.87 39.13 52.22 38.92 52.43 38.5C53.97 35 54.74 31.29 54.74 27.44C54.74 23.66 54.04 20.09 52.57 16.73Z" fill="white"/>
<path d="M73.016 25H79.568C84.848 25 88.496 21.328 88.496 16.6V16.552C88.496 11.824 84.848 8.2 79.568 8.2H73.016V25ZM79.568 11.536C82.592 11.536 84.632 13.624 84.632 16.6V16.648C84.632 19.624 82.592 21.664 79.568 21.664H76.712V11.536H79.568ZM89.1541 25H92.9221L94.4581 21.232H101.562L103.098 25H106.962L99.7621 8.08H96.3541L89.1541 25ZM95.7781 17.968L98.0101 12.52L100.242 17.968H95.7781ZM109.555 25H113.203V14.32L121.339 25H124.483V8.2H120.835V18.544L112.963 8.2H109.555V25ZM136.388 25.288C139.628 25.288 141.548 24.136 143.276 22.288L140.924 19.912C139.604 21.112 138.428 21.88 136.508 21.88C133.628 21.88 131.636 19.48 131.636 16.6V16.552C131.636 13.672 133.676 11.32 136.508 11.32C138.188 11.32 139.508 12.04 140.804 13.216L143.156 10.504C141.596 8.968 139.7 7.912 136.532 7.912C131.372 7.912 127.772 11.824 127.772 16.6V16.648C127.772 21.472 131.444 25.288 136.388 25.288ZM146.403 25H150.099V8.2H146.403V25ZM154.297 25H157.945V14.32L166.081 25H169.225V8.2H165.577V18.544L157.705 8.2H154.297V25ZM181.346 25.288C184.418 25.288 186.794 24.088 188.522 22.624V15.328H181.226V18.52H184.946V20.92C184.01 21.592 182.81 21.928 181.466 21.928C178.49 21.928 176.378 19.672 176.378 16.6V16.552C176.378 13.696 178.514 11.32 181.202 11.32C183.146 11.32 184.298 11.944 185.594 13.024L187.922 10.216C186.17 8.728 184.346 7.912 181.322 7.912C176.234 7.912 172.514 11.824 172.514 16.6V16.648C172.514 21.616 176.114 25.288 181.346 25.288ZM81.104 49.288C84.176 49.288 86.552 48.088 88.28 46.624V39.328H80.984V42.52H84.704V44.92C83.768 45.592 82.568 45.928 81.224 45.928C78.248 45.928 76.136 43.672 76.136 40.6V40.552C76.136 37.696 78.272 35.32 80.96 35.32C82.904 35.32 84.056 35.944 85.352 37.024L87.68 34.216C85.928 32.728 84.104 31.912 81.08 31.912C75.992 31.912 72.272 35.824 72.272 40.6V40.648C72.272 45.616 75.872 49.288 81.104 49.288ZM99.9963 49.288C105.18 49.288 108.948 45.376 108.948 40.6V40.552C108.948 35.776 105.228 31.912 100.044 31.912C94.8603 31.912 91.0923 35.824 91.0923 40.6V40.648C91.0923 45.424 94.8123 49.288 99.9963 49.288ZM100.044 45.88C97.0683 45.88 94.9563 43.48 94.9563 40.6V40.552C94.9563 37.672 97.0203 35.32 99.9963 35.32C102.972 35.32 105.084 37.72 105.084 40.6V40.648C105.084 43.528 103.02 45.88 100.044 45.88ZM109.709 49H113.477L115.013 45.232H122.117L123.653 49H127.517L120.317 32.08H116.909L109.709 49ZM116.333 41.968L118.565 36.52L120.797 41.968H116.333ZM131.866 49H135.562V35.608H140.674V32.2H126.754V35.608H131.866V49Z" fill="white"/>
</svg>
